{"title":"Gabbar is Back (2015) EU DvD Scr Rip - XviD - [1CD] - M-Subs - T","uid":11884964,"size":721339674,"categoryP":"video","categoryS":"other","magnet":"?xt=urn:btih:5d1f5f0a746607fa2d0be393d597f925ac5d40f3&amp;dn=Gabbar+is+Back+%282015%29+EU+DvD+Scr+Rip+-+XviD+-+%5B1CD%5D+-+M-Subs+-+T&amp;tr=udp%3A%2F%2Ftracker.openbittorrent.com%3A80&amp;tr=udp%3A%2F%2Fopen.demonii.com%3A1337&amp;tr=udp%3A%2F%2Ftracker.coppersurfer.tk%3A6969&amp;tr=udp%3A%2F%2Fexodus.desync.com%3A6969","seeders":163,"leechers":2,"uploader":"SS132203","files":2,"time":1430811562,"description":"Gabbar is Back (2015) EU DvD Scr Rip - XviD - [1CD] - M-Subs - Team IcTv Exclusive -={SPARROW}=-\n &lt;a href=&quot;\nhttp://imgsparrow.co/image/Jh&quot; rel=&quot;nofollow&quot; target=&quot;_NEW&quot;&gt;\nhttp://imgsparrow.co/image/Jh&lt;/a&gt;\n\nInfo : -\n\nEnjoyee Exclusivewaa Release By IcTv\nAll Credit Goes To Intellect Clever &amp; IcTv\n\nMovie Info\nBanner : Viacom 18 Motion Pictures\nYear : 2015\nCast : Akshay Kumar.Shruti Haasan.Kareena Kapoor\nVideo: XviD\nAudio : MP3\nGenre : Action / Drama\nSubtitles : English/French/German/Spanish\nResolution : 640 x 272\nRuntime : 2hr 08min xx\nSource : Team IcTv\n\nFormat                                   : AVI\nFormat/Info                              : Audio Video Interleave\nFormat profile                           : OpenDML\nFormat settings                          : rec\nFile size                                : 688 MiB\nDuration                                 : 2h 8mn\nOverall bit rate                         : 749 Kbps\nWriting application                      : AVI-Mux GUI 1.17.8.3, Feb 16 201019:42:50\n\nVideo\nID                                       : 0\nFormat                                   : MPEG-4 Visual\nFormat profile                           : Advanced Simple@L5\nFormat settings, BVOP                    : 2\nFormat settings, QPel                    : No\nFormat settings, GMC                     : No warppoints\nFormat settings, Matrix                  : Default (H.263)\nCodec ID                                 : XVID\nCodec ID/Hint                            : XviD\nDuration                                 : 2h 8mn\nBit rate                                 : 617 Kbps\nWidth                                    : 640 pixels\nHeight                                   : 272 pixels\nDisplay aspect ratio                     : 2.35:1\nFrame rate                               : 29.970 fps\nColor space                              : YUV\nChroma subsampling                       : 4:2:0\nBit depth                                : 8 bits\nScan type                                : Progressive\nCompression mode                         : Lossy\nBits/(Pixel*Frame)                       : 0.118\nStream size                              : 566 MiB (82%)\nWriting library                          : XviD 1.2.1 (UTC 2008-12-04)\n\nAudio\nID                                       : 1\nFormat                                   : MPEG Audio\nFormat version                           : Version 1\nFormat profile                           : Layer 3\nMode                                     : Joint stereo\nMode extension                           : MS Stereo\nCodec ID                                 : 55\nCodec ID/Hint                            : MP3\nDuration                                 : 2h 8mn\nBit rate mode                            : Constant\nBit rate                                 : 128 Kbps\nChannel(s)                               : 2 channels\nSampling rate                            : 48.0 KHz\nCompression mode                         : Lossy\nStream size                              : 118 MiB (17%)\nAlignment                                : Aligned on interleaves\nInterleave, duration                     : 982 ms (29.44 video frames)\nInterleave, preload duration             : 216 ms\nTitle                                    : VTS_01_1 T80 2_0ch 192Kbps DELAY 0ms\nWriting library                          : LAME3.99r\nEncoding settings                        : -m j -V 4 -q 2 -lowpass 17 -b 128\n\nText #1\nID                                       : 2\nStream size                              : 36.7 KiB (0%)\nTitle                                    : english\n\nText #2\nID                                       : 3\nStream size                              : 38.0 KiB (0%)\nTitle                                    : french\n\nText #3\nID                                       : 4\nStream size                              : 11.3 KiB (0%)\nTitle                                    : german\n\nText #4\nID                                       : 5\nStream size                              : 39.1 KiB (0%)\nTitle                                    : spanish\n\nScreens : - \n &lt;a href=&quot;\nhttp://imgsparrow.co/image/uE&quot; rel=&quot;nofollow&quot; target=&quot;_NEW&quot;&gt;\nhttp://imgsparrow.co/image/uE&lt;/a&gt; &lt;a href=&quot;\nhttp://imgsparrow.co/image/uJ&quot; rel=&quot;nofollow&quot; target=&quot;_NEW&quot;&gt;\nhttp://imgsparrow.co/image/uJ&lt;/a&gt; &lt;a href=&quot;\nhttp://imgsparrow.co/image/uU&quot; rel=&quot;nofollow&quot; target=&quot;_NEW&quot;&gt;\nhttp://imgsparrow.co/image/uU&lt;/a&gt; &lt;a href=&quot;\nhttp://imgsparrow.co/image/uu&quot; rel=&quot;nofollow&quot; target=&quot;_NEW&quot;&gt;\nhttp://imgsparrow.co/image/uu&lt;/a&gt; &lt;a href=&quot;\nhttp://imgsparrow.co/image/uw&quot; rel=&quot;nofollow&quot; target=&quot;_NEW&quot;&gt;\nhttp://imgsparrow.co/image/uw&lt;/a&gt; &lt;a href=&quot;\nhttp://imgsparrow.co/image/u4&quot; rel=&quot;nofollow&quot; target=&quot;_NEW&quot;&gt;\nhttp://imgsparrow.co/image/u4&lt;/a&gt; &lt;a href=&quot;\nhttp://imgsparrow.co/image/uH&quot; rel=&quot;nofollow&quot; target=&quot;_NEW&quot;&gt;\nhttp://imgsparrow.co/image/uH&lt;/a&gt; &lt;a href=&quot;\nhttp://imgsparrow.co/image/uT&quot; rel=&quot;nofollow&quot; target=&quot;_NEW&quot;&gt;\nhttp://imgsparrow.co/image/uT&lt;/a&gt; &lt;a href=&quot;\nhttp://imgsparrow.co/image/ub&quot; rel=&quot;nofollow&quot; target=&quot;_NEW&quot;&gt;\nhttp://imgsparrow.co/image/ub&lt;/a&gt; &lt;a href=&quot;\nhttp://imgsparrow.co/image/uh&quot; rel=&quot;nofollow&quot; target=&quot;_NEW&quot;&gt;\nhttp://imgsparrow.co/image/uh&lt;/a&gt;\n &lt;a href=&quot;\nhttp://imgsparrow.co/image/N2&quot; rel=&quot;nofollow&quot; target=&quot;_NEW&quot;&gt;\nhttp://imgsparrow.co/image/N2&lt;/a&gt;","torrent":{"xt":"urn:btih:5d1f5f0a746607fa2d0be393d597f925ac5d40f3","amp;dn":"Gabbar+is+Back+%282015%29+EU+DvD+Scr+Rip+-+XviD+-+%5B1CD%5D+-+M-Subs+-+T","amp;tr":["udp%3A%2F%2Ftracker.openbittorrent.com%3A80","udp%3A%2F%2Fopen.demonii.com%3A1337","udp%3A%2F%2Ftracker.coppersurfer.tk%3A6969","udp%3A%2F%2Fexodus.desync.com%3A6969"],"infoHash":"5d1f5f0a746607fa2d0be393d597f925ac5d40f3","infoHashBuffer":{"type":"Buffer","data":[93,31,95,10,116,102,7,250,45,11,227,147,213,151,249,37,172,93,64,243]},"announce":[],"urlList":[]}}